<svg id="Capa_1" data-name="Capa 1" xmlns="http://www.w3.org/2000/svg" viewBox="0 0 512.59 132"><path d="M183.37,137.34q0,5.81-4.1,7.9a21.48,21.48,0,0,1-9.9,2.1,12.85,12.85,0,0,1-9.7-4.1q-3.9-4.1-6.2-13.2a139.58,139.58,0,0,1-3.3-23.8q-1-14.7-1-35.7a.92.92,0,0,0-.6-1,32.64,32.64,0,0,0-1.4,4.3q-1.2,4.09-2.7,10.3T141.17,98q-1.8,7.69-3.2,15t-2.4,13.7a68.7,68.7,0,0,0-1,10,3.53,3.53,0,0,0,.7,2.4,1.72,1.72,0,0,1-.4,3,12,12,0,0,1-2.6,1.4,19.13,19.13,0,0,1-2.8.9,9.58,9.58,0,0,1-1.9.3,18.33,18.33,0,0,1-4.1-.6,21.78,21.78,0,0,1-5-1.9,24.75,24.75,0,0,1-4.8-3.3,12.82,12.82,0,0,1-3.5-5,32.06,32.06,0,0,1-1.3-7c-.33-3.2-.57-6.73-.7-10.6s-.23-7.93-.3-12.2-.1-8.2-.1-11.8q0-6.6-.2-11.6t-1.2-5c-.27,0-.67.63-1.2,1.9s-1.1,2.7-1.7,4.3-1.13,3.17-1.6,4.7-.77,2.63-.9,3.3a217.87,217.87,0,0,0-5.6,28.5,195.88,195.88,0,0,0-1.4,22.3,25.37,25.37,0,0,0,.1,2.8,2.91,2.91,0,0,0,.3,1.1,3.64,3.64,0,0,0,.4.5,2.87,2.87,0,0,1,.4,1.2,14.64,14.64,0,0,1-5.2,1.4,59.64,59.64,0,0,1-6.8.4c-.27,0-1.1-.1-2.5-.3a23.78,23.78,0,0,1-4.4-1.1,20.35,20.35,0,0,1-4.2-2,3.49,3.49,0,0,1-1.9-3c0-1.07,0-3.13.1-6.2s.13-6.7.2-10.9.13-8.8.2-13.8.13-10,.2-15.1.13-10,.2-14.7.1-8.83.1-12.3c0-1.07,0-2.7-.1-4.9s-.23-4.73-.5-7.6a85.83,85.83,0,0,0-1.3-8.8,45.72,45.72,0,0,0-2.4-8.2,19.05,19.05,0,0,0-3.8-6.1,7.57,7.57,0,0,0-5.7-2.4,15.76,15.76,0,0,0-11.6,5.1,41,41,0,0,0-8.2,12.4,74.8,74.8,0,0,0-4.8,15.3,71.55,71.55,0,0,0-1.6,13.8c0,1.2.1,3.07.3,5.6a36.57,36.57,0,0,0,1.4,7.5,19.35,19.35,0,0,0,3.4,6.6,7.41,7.41,0,0,0,6.1,2.9c.27,0,1.07-.07,2.4-.2s2.2-.2,2.6-.2a14.67,14.67,0,0,1,1.9.2,20.63,20.63,0,0,1,2.7.6,7,7,0,0,1,2.5,1.3,3.06,3.06,0,0,1,1.1,2.5,3.74,3.74,0,0,1-1.2,2.9,8.42,8.42,0,0,1-2.9,1.7,15.75,15.75,0,0,1-3.2.8,19.51,19.51,0,0,1-2.1.2q-8,0-12.8-4a27.38,27.38,0,0,1-7.4-9.6,42.35,42.35,0,0,1-3.5-11.7,73.54,73.54,0,0,1-.9-10.5,80.7,80.7,0,0,1,2.1-17,62.91,62.91,0,0,1,7-18.1,47.78,47.78,0,0,1,12.7-14.4q7.8-5.89,19.2-5.9a12.25,12.25,0,0,1,6.3,1.7,21.91,21.91,0,0,1,5.3,4.4,30.07,30.07,0,0,1,4.1,5.9,31,31,0,0,1,2.5,6,71.83,71.83,0,0,1,3.3,15.3q1.09,9.1,1.6,19t.6,19.9q.11,10,.3,18.4c.67-3.33,1.37-6.47,2.1-9.4s1.5-5.93,2.3-9,1.63-6.33,2.5-9.8,1.83-7.4,2.9-11.8q1.6-7.2,3.7-15.4t4.3-14.8c.27-1.2,1.27-1.93,3-2.2a28.37,28.37,0,0,1,3.4-.4,10.83,10.83,0,0,1,4.1,1.1,27.77,27.77,0,0,1,4.8,2.7,19.35,19.35,0,0,1,4,3.7,6.6,6.6,0,0,1,1.7,4.1v34.2c0,2.53,0,5.67.1,9.4s.13,7.3.2,10.7.2,6.3.4,8.7.43,3.6.7,3.6q1.2,0,2.9-7.1t3.9-17.7q2.2-10.6,4.8-22.9t5.6-22.9a111.91,111.91,0,0,1,6.4-17.7q3.4-7.09,7-7.1,2.2,0,4.8,2.6a38.78,38.78,0,0,1,4.8,5.9,39.8,39.8,0,0,1,3.6,6.6,14.75,14.75,0,0,1,1.4,4.5,21,21,0,0,1-1,4.1,81.85,81.85,0,0,0-2.1,10.9q-1.1,7.6-2.1,20.5t-1,32.7a78.35,78.35,0,0,0,.7,9.6,77,77,0,0,0,2.1,10.7,31.66,31.66,0,0,0,3.7,8.7c1.53,2.4,3.37,3.6,5.5,3.6a5.42,5.42,0,0,0,2.8-.7,7.36,7.36,0,0,0,2.4-2.9A1.94,1.94,0,0,1,183.37,137.34Z" transform="translate(-21.57 -18.54)"/><path d="M210.57,51.34a2.68,2.68,0,0,1-1.4,2.3,10,10,0,0,1-3.1,1.3,30.39,30.39,0,0,1-3.3.6c-1.07.13-1.74.2-2,.2a16.26,16.26,0,0,1-8.3-2.4,23.16,23.16,0,0,1-7.5-7.6c-.27-.4-.67-.93-1.2-1.6a3,3,0,0,1-.8-1.4q0-1,1.5-1.8c1-.53,2.13-1.07,3.4-1.6a23,23,0,0,1,3.6-1.2,12.14,12.14,0,0,1,2.3-.4,17.21,17.21,0,0,1,7.9,2q3.9,2,6.3,7.4.39.6,1.5,2.1A4.78,4.78,0,0,1,210.57,51.34Zm20.4,60.6a59.64,59.64,0,0,1-2.2,10,39.16,39.16,0,0,1-4.5,9.7A25,25,0,0,1,217,139a19.26,19.26,0,0,1-10.8,2.9,18.55,18.55,0,0,1-10.2-3.4,18,18,0,0,1-7.1-9.4,35.83,35.83,0,0,1-1.9-11.2c0-1.07.06-2.67.2-4.8s.2-4.73.2-7.8v-22c0-1.07,0-2.2-.1-3.4a19.06,19.06,0,0,0-.5-3.4,9.81,9.81,0,0,0-.7-1.8,3.76,3.76,0,0,1-.5-1.4,1.48,1.48,0,0,1,1-1.3,7.66,7.66,0,0,1,2.2-.7,22.41,22.41,0,0,1,3.4-.2c.4,0,1.33,0,2.8.1a23.68,23.68,0,0,1,4.6.7,13.18,13.18,0,0,1,4.3,1.9,4.24,4.24,0,0,1,1.9,3.7c.13.4-.1,1.13-.7,2.2a20.77,20.77,0,0,0-1.7,5.6c-.14,1.07-.27,2-.4,2.9s-.27,1.83-.4,2.9-.27,2.37-.4,3.9-.27,3.5-.4,5.9v12c0,2.13.06,4.3.2,6.5a31,31,0,0,0,.9,6,9.79,9.79,0,0,0,2.3,4.4,5.49,5.49,0,0,0,4.2,1.7,8.1,8.1,0,0,0,6-2.2,38.08,38.08,0,0,0,3.4-3.8,22.41,22.41,0,0,0,3.4-7.5q1.2-4.5,2.2-9.3l.4-2a3.34,3.34,0,0,1,3.6-3q3,0,3,4.2v1Z" transform="translate(-21.57 -18.54)"/><path d="M303.77,122.14a27.94,27.94,0,0,1-2,6.6,38.27,38.27,0,0,1-4.1,7.3,25.81,25.81,0,0,1-5.8,5.9,12.14,12.14,0,0,1-7.3,2.4,14.23,14.23,0,0,1-10.5-4.6q-4.5-4.61-5.5-13c-.8,2.13-1.74,4.6-2.8,7.4a39.28,39.28,0,0,1-4,7.8,27.22,27.22,0,0,1-5.5,6.1,11.26,11.26,0,0,1-7.3,2.5,6.18,6.18,0,0,1-1.8-.2c-.4-.13-.84-.3-1.3-.5a8.87,8.87,0,0,0-1.6-.5,12.42,12.42,0,0,0-2.5-.2,11.42,11.42,0,0,1-8.1-3.1,22.54,22.54,0,0,1-5.3-7.9,45.44,45.44,0,0,1-2.9-10.5,68.83,68.83,0,0,1-.9-10.7,190.23,190.23,0,0,1,1.3-22.8,86.43,86.43,0,0,1,4.3-19.1,36.16,36.16,0,0,1,7.8-13.2,15.62,15.62,0,0,1,11.6-4.9,20.26,20.26,0,0,1,6.1.7,30.21,30.21,0,0,1,3.9,1.6c1.2.6,2.5,1.23,3.9,1.9a22,22,0,0,0,5.9,1.6,14.38,14.38,0,0,1,5.9,5.7,21.77,21.77,0,0,1,2.2,7.1,44.66,44.66,0,0,1,.3,7.9,40.53,40.53,0,0,0,.4,8.1q0,.19.9.6t2.1.9a6.39,6.39,0,0,1,2.1,1.4,3.12,3.12,0,0,1,.9,2.3v.8a35.66,35.66,0,0,0-2.4,9.2q-.4,4-.4,9.6,0,2.8.3,6.1a42.5,42.5,0,0,0,1,6.2,13.08,13.08,0,0,0,2.1,4.8,4.27,4.27,0,0,0,3.6,1.9,5.45,5.45,0,0,0,4.3-2.4,23.63,23.63,0,0,0,3.2-5.5,56,56,0,0,0,2.2-6.3,37.1,37.1,0,0,0,1.1-4.8c.26-1.6.93-2.4,2-2.4a2.53,2.53,0,0,1,1.9,1.1,6.31,6.31,0,0,1,.9,3.9v1.5A9.18,9.18,0,0,1,303.77,122.14Zm-37-32.4a41.26,41.26,0,0,0-.4-5.2,25.1,25.1,0,0,0-1.4-5.6,11.36,11.36,0,0,0-3-4.4,7.79,7.79,0,0,0-5.4-1.8q-5.61,0-9.1,5.1a41.16,41.16,0,0,0-5.5,12,71.56,71.56,0,0,0-2.6,14.2q-.6,7.3-.6,11.5,0,3.19.3,7.7a64.55,64.55,0,0,0,1.1,8.5,24.52,24.52,0,0,0,2.3,6.8q1.5,2.81,3.9,2.8a10.16,10.16,0,0,0,8.9-4.5,33.35,33.35,0,0,0,4.7-11.2,103.27,103.27,0,0,0,2.3-14.4q.69-7.69,1.3-14.1.39-3.4,1.8-4.3c.93-.6,1.4-1,1.4-1.3Z" transform="translate(-21.57 -18.54)"/><path d="M356.76,115.74a56,56,0,0,1-.9,6.7,57.71,57.71,0,0,1-3.2,11.2,36.73,36.73,0,0,1-6.2,10.5,12.41,12.41,0,0,1-9.9,4.6,12.66,12.66,0,0,1-10.2-4.5,31.11,31.11,0,0,1-5.8-10.8,61.13,61.13,0,0,1-2.6-13.2q-.6-6.9-.6-11.5a93.19,93.19,0,0,1,.6-10.5q.6-5.3.8-10.5a1.89,1.89,0,0,0-1.6-2,12.28,12.28,0,0,0-3-.4q-2.4,0-3,.6a3,3,0,0,0-.8,1.4l-.8,6.4q-.8,6.41-1.7,12.3t-2,10.4a29.35,29.35,0,0,1-2.6,7.2q-1.5,2.7-3.5,2.7h-.2a3,3,0,0,1-1.5-.4c-.46-.27-.7-.93-.7-2a11.43,11.43,0,0,1,.4-2.4,88.45,88.45,0,0,0,2-11.6q.4-4.6.6-8.2v-1.4c0-.67,0-1.47.1-2.4s.1-2.07.1-3.4v-9.8a36.47,36.47,0,0,0-.4-5.2l-.6-11.8a3.05,3.05,0,0,1,1-2.2,9.75,9.75,0,0,1,2.6-1.8,15.08,15.08,0,0,1,3.4-1.2,14.76,14.76,0,0,1,3.2-.4q3.4,0,3.4,4.4v1l-.2,4.4v1.2c0,.93.2,1.5.6,1.7a12.58,12.58,0,0,0,2.4.7h.6c1.07.13,2.8.27,5.2.4a65.24,65.24,0,0,1,7.2.8,23.22,23.22,0,0,1,6.3,1.9q2.7,1.31,2.7,3.7a9.57,9.57,0,0,1-.4,2.3,27,27,0,0,1-1,3c-.4,1-.73,1.9-1,2.7a6.35,6.35,0,0,0-.4,1.6,113.64,113.64,0,0,0-3.6,28.8c0,.8.07,2.27.2,4.4a58.68,58.68,0,0,0,.8,6.6,24.34,24.34,0,0,0,1.8,6c.8,1.73,1.8,2.6,3,2.6q3,0,5.4-3.7A43,43,0,0,0,347,128a75.9,75.9,0,0,0,2.9-9.9q1.09-5,1.5-7.4c.27-1.47.7-2.37,1.3-2.7a3.57,3.57,0,0,1,1.7-.5q2.81,0,2.8,3.6c0,.27,0,1-.1,2.1A15.66,15.66,0,0,1,356.76,115.74Z" transform="translate(-21.57 -18.54)"/><path d="M418.76,94.74q-2.81,5.4-5.2,11.4t-3.6,9.4c-.13.67-.5,2.07-1.1,4.2l-2,7.1c-.73,2.6-1.37,5.17-1.9,7.7a31.66,31.66,0,0,0-.8,6.2q0,1-1.8,1.8a11.43,11.43,0,0,1-4.6.8,16.94,16.94,0,0,1-7-1.2,8,8,0,0,1-3.9-3.9,19.56,19.56,0,0,1-1.6-7.1c-.2-2.93-.3-6.47-.3-10.6v-15c0-1.07,0-2.13-.1-3.2s-.3-1.73-.7-2q-1,.41-2.5,5.2a106,106,0,0,0-2.8,11.7q-1.31,6.9-2.3,14.5a104.83,104.83,0,0,0-1,13.6,2.43,2.43,0,0,1-2.3,2.6,29.49,29.49,0,0,1-5.1.4,20.12,20.12,0,0,1-2.7-.3c-1.27-.2-2.53-.44-3.8-.7a17.93,17.93,0,0,1-3.5-1.1,3.49,3.49,0,0,1-2-1.7,34,34,0,0,1-1.5-8.6q-.5-6-.5-18.6,0-7.4.3-17.2t.7-23c0-1.2-.07-2.77-.2-4.7s-.2-3-.2-3.3a1.68,1.68,0,0,1,1.3-1.9,9.58,9.58,0,0,1,1.9-.3,21.62,21.62,0,0,1,3.3.3c1.27.2,2.53.43,3.8.7s2.43.57,3.5.9a9.15,9.15,0,0,1,2.2.9v48.2c.67-2.67,1.43-5.77,2.3-9.3s1.87-7,3-10.5a92.63,92.63,0,0,1,3.7-9.6,19.53,19.53,0,0,1,4.2-6.4,6.89,6.89,0,0,1,3-.9,27.82,27.82,0,0,1,3.6-.3,13.15,13.15,0,0,1,2.5.3,14.55,14.55,0,0,1,2.9.9,10.37,10.37,0,0,1,2.5,1.5,3.41,3.41,0,0,1,1.3,2.1v34.2c0,.8.13,1.2.4,1.2s1-1.8,2.28-5.4,2.75-7.87,4.48-12.8,3.58-10,5.57-15.2a123.25,123.25,0,0,1,5.36-12.4c.27-.53,1.16-.83,2.69-.9s2.88-.1,4.07-.1a11.5,11.5,0,0,1,3.78.9,21.26,21.26,0,0,1,4.68,2.5,21,21,0,0,1,4,3.6,6.41,6.41,0,0,1,1.7,4.2,8,8,0,0,1-1.2,2.3,11.63,11.63,0,0,0-1.6,3.9,73.07,73.07,0,0,0-1.9,11q-.49,5.4-.5,13.8,0,3.6.3,7.2a42.58,42.58,0,0,0,1,6.5,14.79,14.79,0,0,0,1.9,4.7,3.68,3.68,0,0,0,3.2,1.8,7.42,7.42,0,0,0,5-1.9,16.27,16.27,0,0,0,3.8-5.1,41.71,41.71,0,0,0,2.8-7.5,90.31,90.31,0,0,0,2-8.9q1-4.8,3.6-4.8a2.31,2.31,0,0,1,2.1.8,12.81,12.81,0,0,1,.3,5.8,48.71,48.71,0,0,1-1.7,8.1,62,62,0,0,1-4.2,11,36.73,36.73,0,0,1-6.7,9.6,12.51,12.51,0,0,1-9.2,4.1,16.67,16.67,0,0,1-10.12-2.9,18.92,18.92,0,0,1-6.13-7.8,42,42,0,0,1-3.06-11.3,96.24,96.24,0,0,1-.89-13.4v-1.4Z" transform="translate(-21.57 -18.54)"/><path d="M534,122.14a27.47,27.47,0,0,1-2,6.6,37.74,37.74,0,0,1-4.1,7.3,25.81,25.81,0,0,1-5.8,5.9,12.12,12.12,0,0,1-7.3,2.4,14.23,14.23,0,0,1-10.5-4.6q-4.5-4.61-5.5-13-1.2,3.2-2.8,7.4a39.28,39.28,0,0,1-4,7.8,27,27,0,0,1-5.5,6.1,11.26,11.26,0,0,1-7.3,2.5,6.18,6.18,0,0,1-1.8-.2c-.4-.13-.83-.3-1.3-.5a8.87,8.87,0,0,0-1.6-.5,12.35,12.35,0,0,0-2.5-.2,11.42,11.42,0,0,1-8.1-3.1,22.54,22.54,0,0,1-5.3-7.9,45.94,45.94,0,0,1-2.9-10.5,68.83,68.83,0,0,1-.9-10.7,190.23,190.23,0,0,1,1.3-22.8,87,87,0,0,1,4.3-19.1,36.16,36.16,0,0,1,7.8-13.2,15.64,15.64,0,0,1,11.6-4.9,20.22,20.22,0,0,1,6.1.7,30.21,30.21,0,0,1,3.9,1.6c1.2.6,2.5,1.23,3.9,1.9a22.15,22.15,0,0,0,5.9,1.6,14.32,14.32,0,0,1,5.9,5.7,21.53,21.53,0,0,1,2.2,7.1,44.66,44.66,0,0,1,.3,7.9,41.28,41.28,0,0,0,.4,8.1q0,.19.9.6t2.1.9a6.39,6.39,0,0,1,2.1,1.4,3.12,3.12,0,0,1,.9,2.3v.8a36.49,36.49,0,0,0-2.4,9.2q-.4,4-.4,9.6,0,2.8.3,6.1a42.5,42.5,0,0,0,1,6.2,13.42,13.42,0,0,0,2.1,4.8,4.27,4.27,0,0,0,3.6,1.9,5.45,5.45,0,0,0,4.3-2.4,23.28,23.28,0,0,0,3.2-5.5,54.09,54.09,0,0,0,2.2-6.3,35.47,35.47,0,0,0,1.1-4.8c.27-1.6.93-2.4,2-2.4a2.51,2.51,0,0,1,1.9,1.1,6.31,6.31,0,0,1,.9,3.9v1.5A9.18,9.18,0,0,1,534,122.14Zm-37-32.4a39.47,39.47,0,0,0-.4-5.2,24.56,24.56,0,0,0-1.4-5.6,11.36,11.36,0,0,0-3-4.4,7.76,7.76,0,0,0-5.4-1.8q-5.6,0-9.1,5.1a41.43,41.43,0,0,0-5.5,12,72.28,72.28,0,0,0-2.6,14.2q-.6,7.3-.6,11.5,0,3.19.3,7.7a66.28,66.28,0,0,0,1.1,8.5,24.52,24.52,0,0,0,2.3,6.8q1.5,2.81,3.9,2.8a10.15,10.15,0,0,0,8.9-4.5,33.15,33.15,0,0,0,4.7-11.2,101.81,101.81,0,0,0,2.3-14.4q.71-7.69,1.3-14.1.4-3.4,1.8-4.3c.93-.6,1.4-1,1.4-1.3Z" transform="translate(-21.57 -18.54)"/></svg>